<?xml version="1.0" encoding="UTF-8"?>
<svg id="Layer_1" xmlns="http://www.w3.org/2000/svg" version="1.1" viewBox="0 0 800 800">
  <!-- Generator: Adobe Illustrator 30.0.0, SVG Export Plug-In . SVG Version: 2.1.1 Build 123)  -->
  <path d="M460.86,439.72h-11.29v11.19h11.29c2.24,0,3.91-.42,4.99-1.29,1.07-.86,1.62-2.26,1.62-4.19,0-3.8-2.2-5.71-6.61-5.71ZM460.86,439.72h-11.29v11.19h11.29c2.24,0,3.91-.42,4.99-1.29,1.07-.86,1.62-2.26,1.62-4.19,0-3.8-2.2-5.71-6.61-5.71ZM464.17,421.15c1.07-.9,1.62-2.27,1.62-4.14s-.55-3.38-1.62-4.32c-1.09-.92-2.75-1.39-4.99-1.39h-9.62v11.19h9.62c2.24,0,3.89-.44,4.99-1.34ZM564.74,352.74v-54.68l-288.19,54.68-30.74,5.83v150.53h427.51v-156.36h-108.59ZM331.99,459.36c-2.4,3.84-5.87,6.83-10.41,9-4.55,2.15-9.95,3.24-16.22,3.24-9.48,0-17.28-2.22-23.43-6.66-6.17-4.44-9.5-10.94-10.02-19.52h26.41c.37,4.55,2.38,6.82,6.04,6.82,1.34,0,2.48-.32,3.42-.95.92-.63,1.39-1.62,1.39-2.96,0-1.87-1-3.36-3.01-4.53-2.03-1.16-5.16-2.48-9.41-3.98-5.07-1.78-9.27-3.54-12.58-5.25-3.33-1.71-6.18-4.21-8.56-7.51-2.4-3.28-3.54-7.49-3.47-12.63,0-5.14,1.32-9.53,3.96-13.14,2.66-3.63,6.27-6.36,10.85-8.23,4.6-1.87,9.76-2.8,15.5-2.8,9.69,0,17.39,2.24,23.1,6.71,5.71,4.47,8.72,10.78,9.02,18.9h-26.74c-.07-2.24-.63-3.84-1.67-4.81-1.06-.97-2.33-1.44-3.81-1.44-1.06,0-1.9.35-2.57,1.06-.69.7-1.02,1.69-1.02,2.96,0,1.8.99,3.28,2.98,4.42,1.97,1.16,5.13,2.55,9.44,4.19,5,1.87,9.13,3.66,12.37,5.37,3.24,1.73,6.06,4.1,8.46,7.17,2.38,3.05,3.58,6.89,3.58,11.52s-1.2,9.2-3.58,13.04ZM414,436.25c0,7.54-1.57,13.97-4.7,19.29-3.14,5.34-7.43,9.35-12.88,12.03-5.44,2.69-11.52,4.03-18.23,4.03s-12.65-1.34-17.85-4.03c-5.18-2.68-9.23-6.68-12.14-11.96-2.91-5.3-4.35-11.75-4.35-19.36v-44.64h24.72v44.64c0,3.66.81,6.55,2.41,8.67,1.6,2.13,4.19,3.19,7.77,3.19s6.24-1.06,7.95-3.19c1.71-2.11,2.57-5,2.57-8.67v-44.64h24.73v44.64ZM485.98,465.17c-4.58,3.77-11.17,5.64-19.75,5.64h-41.5v-79.2h40.39c8.05,0,14.39,1.76,19.01,5.27,4.63,3.51,6.94,8.61,6.94,15.33,0,4.62-1.22,8.53-3.63,11.68-2.43,3.17-5.65,5.28-9.69,6.32,4.77,1.13,8.49,3.42,11.13,6.89,2.64,3.47,3.98,7.47,3.98,12.01,0,6.94-2.31,12.3-6.89,16.07ZM558.86,459.36c-2.38,3.84-5.85,6.83-10.39,9-4.56,2.15-9.97,3.24-16.22,3.24-9.48,0-17.28-2.22-23.45-6.66-6.15-4.44-9.48-10.94-10.01-19.52h26.41c.37,4.55,2.38,6.82,6.04,6.82,1.34,0,2.47-.32,3.4-.95.93-.63,1.41-1.62,1.41-2.96,0-1.87-1-3.36-3.03-4.53-2.01-1.16-5.14-2.48-9.39-3.98-5.07-1.78-9.27-3.54-12.58-5.25-3.33-1.71-6.18-4.21-8.56-7.51-2.4-3.28-3.56-7.49-3.47-12.63,0-5.14,1.32-9.53,3.96-13.14,2.64-3.63,6.27-6.36,10.85-8.23,4.6-1.87,9.76-2.8,15.5-2.8,9.69,0,17.39,2.24,23.1,6.71,5.71,4.47,8.7,10.78,9,18.9h-26.72c-.09-2.24-.63-3.84-1.69-4.81-1.04-.97-2.31-1.44-3.81-1.44-1.04,0-1.9.35-2.57,1.06-.67.7-1,1.69-1,2.96,0,1.8.99,3.28,2.96,4.42,1.99,1.16,5.13,2.55,9.46,4.19,5,1.87,9.13,3.66,12.37,5.37,3.24,1.73,6.06,4.1,8.44,7.17,2.4,3.05,3.59,6.89,3.59,11.52s-1.2,9.2-3.59,13.04ZM618.82,470.81h-24.84v-24.05l-28.42-55.16h28.42l24.84,55.16v24.05ZM626.75,417.73c-7.58,0-13.72-6.15-13.72-13.74s6.15-13.72,13.72-13.72,13.72,6.15,13.72,13.72-6.15,13.74-13.72,13.74ZM460.86,439.72h-11.29v11.19h11.29c2.24,0,3.91-.42,4.99-1.29,1.07-.86,1.62-2.26,1.62-4.19,0-3.8-2.2-5.71-6.61-5.71ZM464.17,421.15c1.07-.9,1.62-2.27,1.62-4.14s-.55-3.38-1.62-4.32c-1.09-.92-2.75-1.39-4.99-1.39h-9.62v11.19h9.62c2.24,0,3.89-.44,4.99-1.34ZM464.17,412.69c-1.09-.92-2.75-1.39-4.99-1.39h-9.62v11.19h9.62c2.24,0,3.89-.44,4.99-1.34,1.07-.9,1.62-2.27,1.62-4.14s-.55-3.38-1.62-4.32ZM126.67,290.89l78.18,78.18-78.18,78.18h105.05v-100.34l295.23-56.02H126.67Z"/>
</svg>